<?xml version="1.0" encoding="utf-8"?>
<!-- Generator: Adobe Illustrator 26.5.0, SVG Export Plug-In . SVG Version: 6.00 Build 0)  -->
<svg version="1.1"
	 id="svg2" xmlns:inkscape="http://www.inkscape.org/namespaces/inkscape" xmlns:svg="http://www.w3.org/2000/svg" xmlns:cc="http://creativecommons.org/ns#" xmlns:dc="http://purl.org/dc/elements/1.1/" xmlns:sodipodi="http://sodipodi.sourceforge.net/DTD/sodipodi-0.dtd" xmlns:rdf="http://www.w3.org/1999/02/22-rdf-syntax-ns#" inkscape:version="0.48.2 r9819" sodipodi:docname="Documento nuevo 1"
	 xmlns="http://www.w3.org/2000/svg" xmlns:xlink="http://www.w3.org/1999/xlink" x="0px" y="0px" viewBox="0 0 720 720"
	 style="enable-background:new 0 0 720 720;" xml:space="preserve">
<style type="text/css">
	.st0{fill:#C8BEB7;stroke:#000000;stroke-width:4.6934;}
	.st1{fill:none;stroke:#000000;stroke-width:2.596;stroke-linecap:round;stroke-linejoin:round;}
	.st2{fill:#FFD5D5;stroke:#000000;stroke-width:2.596;}
	.st3{fill:none;stroke:#000000;stroke-width:12;stroke-linecap:round;stroke-linejoin:round;}
	.st4{fill:#E1BA9E;}
	.st5{fill:none;stroke:#000000;stroke-width:8;stroke-linecap:round;stroke-linejoin:round;}
</style>
<defs>
	
		<inkscape:perspective  id="perspective3020" inkscape:persp3d-origin="372.04724 : 350.78739 : 1" inkscape:vp_x="0 : 526.18109 : 1" inkscape:vp_y="0 : 1000 : 0" inkscape:vp_z="744.09448 : 526.18109 : 1" sodipodi:type="inkscape:persp3d">
		</inkscape:perspective>
</defs>
<sodipodi:namedview  bordercolor="#666666" borderopacity="1.0" fit-margin-bottom="0" fit-margin-left="0" fit-margin-right="0" fit-margin-top="0" id="base" inkscape:current-layer="layer1" inkscape:cx="117.30773" inkscape:cy="374.5632" inkscape:document-units="px" inkscape:pageopacity="0.0" inkscape:pageshadow="2" inkscape:window-height="1021" inkscape:window-maximized="1" inkscape:window-width="1920" inkscape:window-x="0" inkscape:window-y="27" inkscape:zoom="0.98994949" pagecolor="#ffffff" showgrid="false">
	</sodipodi:namedview>
<g id="layer1" transform="translate(-38.7489,-23.87301)" inkscape:groupmode="layer" inkscape:label="Capa 1">
	<g id="g12609" transform="matrix(4.1010863,0,0,4.3362575,33.024397,243.19382)">
		<path id="path12180" inkscape:connector-curvature="0" class="st0" d="M52-35.1c-10.4,0-25.5,41.3-27.7,64c-0.6,2.9-0.9,5.9-0.9,9
			v18.3c0,24.3,19.5,43.8,43.8,43.8h45.4c24.3,0,43.8-19.5,43.8-43.8V38c0-0.8,0-1.6,0-2.3c1.9-21-18-70.8-29.7-70.8
			c-5.9,0-13.4,13.5-19.2,29.3H72.6C66.3-21.7,58-35.1,52-35.1L52-35.1z"/>
		<g id="g12599">
			<path id="path12184" inkscape:connector-curvature="0" sodipodi:nodetypes="cccc" class="st1" d="M65.8,68.1
				c0,14.8,25.1,14.6,25.1,0c0,14.3,22.9,14.3,22.9,0v-0.2"/>
			<path id="path12186" inkscape:connector-curvature="0" sodipodi:nodetypes="cccc" class="st2" d="M78.2,79.5
				c2.8,42.4,21.3,42.8,24.1,0c-4.4-0.7-8.8-1.4-11.6-8.1C89,74.9,87.8,78.6,78.2,79.5z"/>
		</g>
		<g id="g12188" transform="matrix(0.43265873,0,0,0.43265873,-57.634829,-121.88756)">
			<path id="path12190" inkscape:connector-curvature="0" class="st3" d="M245.9,381.7l49.7-38.6"/>
			<path id="path12190_00000042707355090168627960000004305328530407447468_" inkscape:connector-curvature="0" class="st3" d="
				M245.9,335.9l40.8,47"/>
			<path id="path12192" inkscape:connector-curvature="0" class="st3" d="M439,381.7l-49.7-38.6"/>
			
				<path id="path12194" sodipodi:cx="255.06352" sodipodi:cy="398.03586" sodipodi:rx="30.809652" sodipodi:ry="7.8286824" sodipodi:type="arc" class="st4" d="
				M285.9,398c0,4.3-13.8,7.8-30.8,7.8s-30.8-3.5-30.8-7.8s13.8-7.8,30.8-7.8S285.9,393.7,285.9,398z"/>
			
				<path id="path12196" sodipodi:cx="255.06352" sodipodi:cy="398.03586" sodipodi:rx="30.809652" sodipodi:ry="7.8286824" sodipodi:type="arc" class="st4" d="
				M459.1,398c0,4.3-13.8,7.8-30.8,7.8c-17,0-30.8-3.5-30.8-7.8s13.8-7.8,30.8-7.8C445.3,390.2,459.1,393.7,459.1,398z"/>
			<path id="path12192_00000098923096879541778970000006398262042875131526_" inkscape:connector-curvature="0" class="st3" d="
				M434.6,335.9l-40.8,47"/>
		</g>
		<g id="g12198" transform="matrix(0.43265873,0,0,0.43265873,-57.634829,-121.88756)">
			<path id="path12200" inkscape:connector-curvature="0" class="st5" d="M233,418.5l-83.9-22"/>
			<path id="path12202" inkscape:connector-curvature="0" class="st5" d="M233,442.2l-83.9,22"/>
		</g>
		<g id="g12204" transform="matrix(-0.43265873,0,0,0.43265873,235.98977,-121.88756)">
			<path id="path12206" inkscape:connector-curvature="0" class="st5" d="M233,418.5l-83.9-22"/>
			<path id="path12208" inkscape:connector-curvature="0" class="st5" d="M233,442.2l-83.9,22"/>
		</g>
	</g>
	<g id="g12235" transform="matrix(1.375508,0,0,1,130.86914,25)">
		<g id="text12227" transform="matrix(0,0.79275042,-1.2614311,0,0,0)">
		</g>
		<g id="text12231" transform="matrix(0,0.7927504,1.2614311,0,0,0)">
		</g>
	</g>
</g>
</svg>
