<?xml version="1.0" encoding="utf-8"?>
<!-- Generator: Adobe Adobe Illustrator 24.2.0, SVG Export Plug-In . SVG Version: 6.00 Build 0)  -->
<svg version="1.1" id="Ebene_1" xmlns="http://www.w3.org/2000/svg" xmlns:xlink="http://www.w3.org/1999/xlink" x="0px" y="0px"
	 width="600px" height="600px" viewBox="0 0 600 600" style="enable-background:new 0 0 600 600;" xml:space="preserve">
<style type="text/css">
	.st0{fill:#E2C6BA;}
	.st1{fill:none;stroke:#000000;stroke-width:6;stroke-miterlimit:10;}
	.st2{fill:none;stroke:#000000;stroke-width:6;stroke-miterlimit:10;stroke-dasharray:0,0,0,0,0,0;}
</style>
<circle class="st0" cx="295.01" cy="309.47" r="165"/>
<path class="st1" d="M287.07,526.88c16.09-51.81,19.69-106.87,16.49-161.02c-3.2-54.15-13.05-107.68-23.26-160.17
	c-4.05-30.34,6.34-62.3,27.48-84.45s52.56-34.04,84.33-29.82c1.45,21.07-2.92,42.51-12.5,61.33c-3.62,7.12-7.99,13.89-13.19,19.95
	c-20.84,24.28-55.66,35.61-86.95,29.23c-11.73-24.31-30.09-45.95-53.99-58.5s-53.56-15.14-77.94-3.86
	c-3.59,9.28-1.52,19.78,1.94,29.11c7.02,18.9,20.1,36,37.98,45.34c14.59,7.62,31.74,9.74,48.02,7.33
	c16.29-2.41,31.74-9.18,45.44-18.31"/>
<path class="st1" d="M295.01,287.9c1.98-8.22,5.64-16.02,10.69-22.8"/>
<path class="st1" d="M303.47,365.71c-4.13-21.19-17.42-40.43-35.79-51.79"/>
<path class="st1" d="M305.14,395.86c7.58-25.23,24.08-47.69,45.9-62.45"/>
<path class="st1" d="M305.46,265.15c-6.96-11.83-7.11-27.38-0.36-39.33c6.75-11.95,20.13-19.86,33.86-20.01
	c3.44-0.04,6.98,0.41,10.01,2.04c6.14,3.3,8.88,10.58,10.45,17.37c2.77,11.99,3.38,25.02-1.77,36.2
	c-5.15,11.18-17.24,19.76-29.39,17.82C318.4,277.66,309.11,271.36,305.46,265.15z"/>
<path class="st1" d="M350.38,333.03c-3.8-11.54-5.23-24.2-1.79-35.86c3.44-11.66,12.3-22.09,24-25.38
	c12.89-3.62,27.87,2.63,34.38,14.33c3.26,5.85,4.46,12.62,5.08,19.29c0.69,7.53,0.63,15.37-2.35,22.32
	c-5.21,12.15-18.81,19.25-32.02,19.55C367.15,347.5,353.96,343.89,350.38,333.03z"/>
<path class="st1" d="M268.54,312.76c3.65-14.8-0.45-31.3-10.6-42.67c-10.16-11.37-26.09-17.29-41.21-15.33
	c-5.06,0.66-10.4,2.41-13.32,6.6c-2.85,4.09-2.74,9.53-1.96,14.45c2.83,17.93,13.25,34.54,28.17,44.89c4.33,3,9.23,5.56,14.5,5.72
	C253.38,326.7,261.09,319.75,268.54,312.76z"/>
<path class="st1" d="M302.6,446.19c-1.7-9.62-7.31-18.2-14.25-25.07s-15.19-12.25-23.38-17.57"/>
<path class="st1" d="M299.56,474.47c10.55-24.05,27.8-45.12,49.21-60.7c-3.24-7.13-0.44-15.53,3.4-22.36
	c10.14-18.03,27.76-31.69,47.75-37.03s42.07-2.27,61.1,9.63c-6.11,16.87-18.09,31.34-32.78,41.66
	c-14.68,10.32-31.98,16.61-49.68,19.55c-5.65,0.94-11.52,1.54-17.06,0.09c-5.54-1.45-10.76-5.33-12.38-10.82"/>
<path class="st1" d="M265.31,402.69c-0.04-20.13-14.87-38.35-33.41-46.19s-39.92-6.58-58.58-0.27c-1.36,8.75,1.99,17.56,6.28,25.31
	c8.43,15.27,21.34,28.73,37.81,34.46S254.06,418.31,265.31,402.69z"/>
<path class="st1" d="M348.53,414.08c32.85-24.51,70.94-41.96,110.95-50.83"/>
<path class="st1" d="M280.17,202.89c24.13-47.93,64.18-87.67,112.29-111.42"/>
<path class="st2" d="M278.03,202.76c-40.73-25.95-82.69-52.41-130.07-61.74"/>
<path class="st2" d="M265.23,403.48c-10-9.59-22.54-16.02-35.03-22.03c-18.58-8.94-37.46-17.25-56.41-25.33"/>
<path class="st1" d="M293.81,178.68c-2.69-13.66-2.14-27.94,1.59-41.35"/>
<path class="st1" d="M305.96,161.57c-2.69-12.85-2.21-26.34,1.38-38.97"/>
<path class="st1" d="M319.78,146.03c-0.79-13.76,1.43-27.68,6.45-40.51"/>
<path class="st1" d="M336.36,129.62c1.05-11.65,4.21-23.1,9.27-33.64"/>
<path class="st1" d="M355.07,115.09c1.9-8.77,5.95-17.07,11.69-23.97"/>
<path class="st1" d="M258.76,190.16c-0.7-9.86-3.24-19.59-7.45-28.54"/>
<path class="st1" d="M240.09,179.21c-1.5-11.54-4.75-22.85-9.61-33.42"/>
<path class="st1" d="M220.6,167.94c-1.65-11.12-5.51-21.9-11.3-31.53"/>
<path class="st1" d="M200.84,158.62c-1.78-9.74-6.06-19-12.31-26.68"/>
<path class="st1" d="M182.62,150.75c-2.62-7.12-7.72-13.3-14.22-17.21"/>
<path class="st1" d="M358.83,406.51c-0.79-9.4,0.02-18.92,2.36-28.05"/>
<path class="st1" d="M373.97,397.54c0.37-12.28,2.75-24.49,7.03-36"/>
<path class="st1" d="M387.31,389.78c2.24-13.04,7.29-25.6,14.7-36.56"/>
<path class="st1" d="M406.49,380.8c2.78-11.04,8.37-21.35,16.09-29.71"/>
<path class="st1" d="M427.08,371.85c1.63-3.27,3.28-6.56,5.45-9.49s4.94-5.53,8.29-6.98"/>
<path class="st1" d="M253.79,392.62c-0.38-9.11-2.45-18.14-6.08-26.5"/>
<path class="st1" d="M238.69,384.44c-0.17-10.39-2.99-20.73-8.12-29.77"/>
<path class="st1" d="M225.14,377.14c-0.7-9.09-3.73-17.99-8.73-25.61"/>
<path class="st1" d="M207.05,368.97c-1-6.54-3.93-12.77-8.32-17.72"/>
<path class="st1" d="M192.27,362.16c-0.09-3.68-1.69-7.3-4.36-9.83"/>
</svg>
