<?xml version="1.0" encoding="UTF-8"?><svg id="Ebene_2" xmlns="http://www.w3.org/2000/svg" viewBox="0 0 192 270.66"><defs><style>.cls-1{fill:#69be1f;fill-rule:evenodd;stroke:#386910;stroke-width:12px;}</style></defs><g id="svg3583"><path id="path7862" class="cls-1" d="m96,90.69l-41.1-41.1m41.1,176.1L6,135.69m90,45L13.99,98.68m82.01,37.01h0l-63.6-63.6m127.21,0c5.58,5.58,10.46,11.88,14.34,18.6,7.76,13.45,12.06,29.47,12.06,45s-4.29,31.55-12.06,45-19.49,25.18-32.94,32.94-29.47,12.06-45,12.06-31.55-4.29-45-12.06-25.18-19.49-32.94-32.94-12.06-29.47-12.06-45,4.29-31.55,12.06-45c3.88-6.72,8.76-13.02,14.34-18.6L96,8.49l63.6,63.6ZM96,8.49v262.18"/></g></svg>